<svg version="1.1" id="Layer_1" xmlns="http://www.w3.org/2000/svg" xmlns:xlink="http://www.w3.org/1999/xlink" x="0px" y="0px"
	 width="200%" viewBox="0 0 1024 976" enable-background="new 0 0 1024 976" xml:space="preserve">
<path fill="#000000" opacity="1.000000" stroke="none" 
	d="
M1025.000000,2.500000 
	C1022.928345,2.118168 1020.737305,2.363335 1018.583923,2.363310 
	C685.337463,2.359452 352.091003,2.366074 18.844536,2.360588 
	C13.184025,2.360494 7.523516,2.218532 1.431503,2.071385 
	C1.217985,1.692326 0.494306,0.957172 1.500338,0.989468 
	C2.832299,1.032227 4.166667,1.000000 5.500000,1.000000 
	C343.833344,1.000000 682.166687,0.998111 1020.500000,1.061667 
	C1021.963318,1.061942 1023.890686,-0.091487 1025.000000,2.500000 
z"/>
<path fill="#000000" opacity="1.000000" stroke="none" 
	d="
M549.668701,514.232666 
	C555.247437,514.198975 560.404175,514.343750 565.554993,514.225708 
	C568.522217,514.157654 569.790527,515.121460 570.625549,518.222229 
	C576.462769,539.899109 585.621582,559.896912 601.653442,576.111694 
	C616.509827,591.137756 634.331482,600.016174 655.729248,598.619507 
	C681.499573,596.937378 699.935181,583.545898 711.148376,560.320374 
	C712.597473,557.318848 712.966187,553.979980 712.931030,550.577271 
	C712.822632,540.079346 712.979370,529.578186 712.815552,519.081665 
	C712.757568,515.366089 714.051697,514.043457 717.808350,514.301208 
	C722.443054,514.619141 727.124695,514.583862 731.767090,514.340332 
	C734.780518,514.182129 736.178772,515.202148 736.180786,518.193298 
	C736.188477,529.691956 736.206665,541.190613 736.221558,552.689270 
	C736.223572,554.259888 735.531799,555.553955 734.705872,556.842163 
	C721.677185,577.162537 704.350525,592.542603 681.020752,599.317139 
	C649.858459,608.366150 620.306030,603.630554 593.445862,585.031555 
	C570.001587,568.797791 556.056335,545.784973 547.463989,519.100830 
	C546.751404,516.887817 546.684387,515.175110 549.668701,514.232666 
z"/>
<path fill="#000000" opacity="1.000000" stroke="none" 
	d="
M304.689453,447.388184 
	C298.065735,447.418732 291.896667,447.279480 285.744263,447.537964 
	C282.757538,447.663513 280.610901,446.722504 278.806213,444.483063 
	C266.250763,428.903137 263.713989,411.431885 269.823151,392.774292 
	C276.658875,371.897827 292.715759,360.465851 312.282806,352.871368 
	C330.751862,345.703064 349.995331,345.344849 369.354309,346.210297 
	C387.551758,347.023834 405.364838,350.063660 422.645172,356.061951 
	C425.911957,357.195923 427.110718,358.924286 427.079681,362.211090 
	C427.001190,370.538055 427.132233,378.866821 427.119293,387.194763 
	C427.116577,388.951111 427.563477,391.215576 425.094116,391.681335 
	C422.839020,392.106689 421.998688,390.136353 421.170258,388.501068 
	C413.042145,372.456757 400.470581,361.451996 383.619202,355.249908 
	C369.189819,349.939301 354.373383,349.323090 339.382690,351.820068 
	C330.643768,353.275665 322.174713,355.897278 314.459961,360.346008 
	C296.280212,370.829437 285.265228,385.716766 286.092651,407.654724 
	C286.616241,421.536285 294.649872,430.640961 305.453888,437.901398 
	C309.689545,440.747833 314.134277,443.283234 319.583008,446.636871 
	C314.079102,448.184357 309.561798,447.190857 304.689453,447.388184 
z"/>
<path fill="#000000" opacity="1.000000" stroke="none" 
	d="
M572.453369,423.394165 
	C570.226074,430.119659 569.226257,436.706757 568.098206,443.255310 
	C567.599426,446.151031 566.493225,447.421234 563.269409,447.604095 
	C558.088013,447.897980 552.965942,447.199615 547.815186,447.353912 
	C544.727478,447.446411 543.756592,446.174805 544.391052,443.020630 
	C548.214294,424.012909 555.447510,406.515472 566.785522,390.719360 
	C579.033813,373.655121 594.797729,361.063538 614.157288,352.967773 
	C630.373840,346.186340 647.432251,345.226929 664.668884,346.048828 
	C683.193298,346.932159 701.352661,349.915314 718.939514,356.084991 
	C722.176758,357.220673 723.397827,358.778320 723.313721,362.173309 
	C723.115601,370.162781 723.294861,378.160950 723.228699,386.154816 
	C723.211792,388.201355 723.942810,390.946442 721.051636,391.577606 
	C718.460999,392.143158 717.981750,389.543793 717.078796,387.858795 
	C703.315430,362.173859 680.756470,351.018738 652.743042,350.540253 
	C628.463196,350.125549 609.280884,361.551117 594.258179,380.062073 
	C583.959229,392.752533 577.281372,407.417694 572.453369,423.394165 
z"/>
<path fill="#000000" opacity="1.000000" stroke="none" 
	d="
M438.572571,515.782104 
	C443.661896,534.655518 441.620911,551.862061 430.012512,567.774902 
	C418.812286,583.128357 403.629059,592.525330 385.979156,597.959778 
	C349.185730,609.288452 315.022034,602.643188 282.130646,583.290344 
	C270.572510,576.489746 265.630157,568.822815 267.613922,555.912415 
	C268.264069,551.681152 267.676697,547.264709 267.729523,542.933899 
	C267.747742,541.441467 267.804138,539.708191 269.571106,539.207153 
	C271.374268,538.695862 272.222168,540.220154 273.025940,541.479309 
	C279.323486,551.345276 286.736816,560.243347 295.209320,568.356079 
	C315.962311,588.227783 340.204041,599.356506 369.263123,596.640381 
	C392.650970,594.454346 411.089020,583.409912 421.256226,561.477051 
	C427.528381,547.946716 426.949768,534.306946 418.282593,521.571899 
	C417.253723,520.060120 416.315948,518.482849 415.409912,516.893677 
	C415.183411,516.496399 415.244293,515.935303 415.031281,514.481567 
	C422.944519,514.320374 430.656158,513.403076 438.572571,515.782104 
z"/>
<path fill="#000000" opacity="1.000000" stroke="none" 
	d="
M681.805664,447.401062 
	C656.482910,447.917419 631.661621,445.946777 605.380798,447.823669 
	C609.301636,441.414276 613.231323,437.604706 618.246765,434.877625 
	C629.280701,428.878174 641.025879,428.064789 653.203064,429.958344 
	C669.024597,432.418549 683.393738,439.158600 698.082031,444.966553 
	C698.597656,445.170441 698.909668,445.889343 699.848755,446.994568 
	C693.619446,448.677277 687.897888,447.038300 681.805664,447.401062 
z"/>
<path fill="#000000" opacity="1.000000" stroke="none" 
	d="
M507.994476,408.000000 
	C507.969574,419.490356 507.961060,430.480804 507.900696,441.470978 
	C507.892578,442.950714 507.728790,444.450043 507.439545,445.900970 
	C507.228363,446.960419 506.390778,447.598450 505.248962,447.540649 
	C504.127319,447.483856 503.327026,446.805450 503.139008,445.747192 
	C502.908051,444.447083 502.847076,443.102539 502.848999,441.777405 
	C502.925842,389.489807 503.013153,337.202209 503.115814,284.914642 
	C503.126587,279.429932 504.029266,273.963470 503.346649,268.455750 
	C503.154633,266.906586 503.663177,265.300049 505.582642,265.146332 
	C507.577637,264.986511 508.025604,266.537079 508.139374,268.122955 
	C508.234497,269.448853 508.194214,270.785400 508.192291,272.117188 
	C508.127960,317.244781 508.061096,362.372406 507.994476,408.000000 
z"/>
<path fill="#000000" opacity="1.000000" stroke="none" 
	d="
M507.284973,624.000000 
	C507.258667,640.823792 507.236023,657.147583 507.199280,673.471375 
	C507.196289,674.800842 507.176056,676.139343 507.019989,677.456665 
	C506.870636,678.717285 506.184662,679.717224 504.790497,679.690186 
	C503.316925,679.661621 502.910980,678.506165 502.828949,677.272278 
	C502.740662,675.944641 502.731567,674.610046 502.732239,673.278442 
	C502.757568,622.141418 502.787720,571.004456 502.820343,519.867432 
	C502.820984,518.868835 502.831757,517.868774 502.886444,516.872070 
	C502.958832,515.553223 503.559265,514.598145 504.979706,514.561523 
	C506.649231,514.518433 507.358826,515.564880 507.374939,517.106079 
	C507.406281,520.103699 507.383423,523.101929 507.380524,526.099915 
	C507.348938,558.566589 507.316864,591.033325 507.284973,624.000000 
z"/>
<path fill="#000000" opacity="1.000000" stroke="none" 
	d="
M377.354248,477.332642 
	C379.375000,473.868988 381.171906,470.685364 383.041962,467.545319 
	C383.850708,466.187256 385.036133,465.150757 386.729797,465.619934 
	C388.374298,466.075470 388.254333,467.636292 388.258575,468.945282 
	C388.281738,476.097107 388.284851,483.249207 388.238159,490.400848 
	C388.228577,491.869995 388.285278,493.727692 386.252411,493.843109 
	C383.885071,493.977509 383.812073,491.991150 383.787292,490.322021 
	C383.725800,486.184387 383.767090,482.045197 383.767090,476.616608 
	C380.804932,481.196899 378.588104,484.758148 376.233154,488.225586 
	C374.204559,491.212463 372.192719,491.413086 370.277618,487.988922 
	C368.431824,484.688751 366.446045,481.466858 364.091492,477.482513 
	C362.423584,482.104614 363.520020,486.046753 363.099487,489.846008 
	C362.898254,491.664429 363.067810,493.909271 360.517487,493.897980 
	C358.023346,493.886993 357.932404,491.716492 357.923767,489.848663 
	C357.892273,483.029510 357.888824,476.210052 357.923645,469.390900 
	C357.932129,467.723358 357.950714,465.854614 360.038300,465.362335 
	C362.041016,464.890106 363.091888,466.447571 363.930145,467.858887 
	C366.886932,472.836823 369.737823,477.877655 372.828613,483.241241 
	C375.148834,481.709747 375.777405,479.355804 377.354248,477.332642 
z"/>
<path fill="#000000" opacity="1.000000" stroke="none" 
	d="
M718.457764,471.225342 
	C718.485046,469.708038 718.481995,468.541473 718.650085,467.400146 
	C718.843323,466.087128 719.722473,465.343597 721.033997,465.256531 
	C722.655457,465.148926 723.669617,466.146606 723.765198,467.584717 
	C724.295410,475.562195 724.254761,483.550812 723.812195,491.531860 
	C723.745667,492.733002 723.023438,493.802765 721.696167,494.006836 
	C719.842529,494.291840 718.555969,493.287354 717.475098,491.892120 
	C713.308594,486.514008 709.122253,481.151184 704.024109,474.601685 
	C704.024109,480.323547 704.107483,484.685089 703.987610,489.041046 
	C703.930725,491.109467 704.228027,493.968475 701.144653,493.924469 
	C698.292908,493.883789 698.775757,491.174683 698.755920,489.278564 
	C698.687988,482.783417 698.713684,476.286926 698.749634,469.791260 
	C698.758667,468.161224 698.452026,466.190887 700.406311,465.460144 
	C702.502930,464.676178 703.894470,466.178070 704.975342,467.679291 
	C708.836304,473.041595 712.620850,478.457642 718.502991,483.735382 
	C718.502991,479.014801 718.502991,475.301025 718.457764,471.225342 
z"/>
<path fill="#000000" opacity="1.000000" stroke="none" 
	d="
M472.121033,489.679413 
	C471.915710,491.925690 472.106323,494.220245 469.390320,493.924438 
	C466.935669,493.657104 467.055389,491.414948 467.041351,489.620392 
	C466.988007,482.802551 467.023376,475.983978 467.029572,469.165680 
	C467.030975,467.636658 467.067383,466.021271 468.766907,465.375977 
	C470.709259,464.638489 471.879364,466.019287 472.934906,467.326263 
	C475.127197,470.040741 477.251709,472.809814 479.428314,475.537109 
	C481.574524,478.226288 483.750610,480.891602 486.800262,484.664276 
	C486.800262,478.681030 486.780457,473.949066 486.810028,469.217438 
	C486.821838,467.328461 486.965576,465.187256 489.474518,465.265106 
	C491.759064,465.335999 492.284546,467.273651 492.278625,469.262207 
	C492.258362,476.080536 492.243988,482.899048 492.174774,489.716980 
	C492.158142,491.352386 492.301880,493.247070 490.303925,493.925812 
	C488.109772,494.671173 486.990112,492.984436 485.817444,491.573700 
	C481.595947,486.495087 477.374268,481.416595 472.135742,475.114716 
	C472.135742,480.762756 472.135742,484.993652 472.121033,489.679413 
z"/>
<path fill="#000000" opacity="1.000000" stroke="none" 
	d="
M634.393677,468.648071 
	C634.591797,466.646179 635.155334,465.256409 637.096924,465.376801 
	C638.906982,465.489044 639.765930,466.911102 639.780090,468.470978 
	C639.847839,475.950867 639.824280,483.433319 639.680969,490.911926 
	C639.652771,492.383057 639.019287,494.035797 637.068909,493.988007 
	C634.875244,493.934296 634.570129,492.255646 634.415405,490.473755 
	C633.685425,482.064758 633.660400,482.323792 625.333923,482.044037 
	C620.669678,481.887329 619.256409,483.507782 619.508545,488.008636 
	C619.621094,490.018555 621.127380,493.937653 617.129944,493.866241 
	C613.355530,493.798859 614.827942,490.087616 614.707397,487.894348 
	C614.378784,481.919586 614.319885,475.928345 614.239319,469.942474 
	C614.212585,467.954071 614.147461,465.467194 616.802124,465.276154 
	C619.786255,465.061371 620.003784,467.540588 620.064880,469.815643 
	C620.278687,477.773407 620.302551,477.342224 628.237122,477.743896 
	C635.714050,478.122406 633.579834,472.774261 634.393677,468.648071 
z"/>
<path fill="#000000" opacity="1.000000" stroke="none" 
	d="
M577.416870,473.501831 
	C574.157654,477.574890 574.613281,481.673187 576.718994,485.496368 
	C578.668762,489.036438 582.144470,490.113861 586.139404,489.830505 
	C589.358032,489.602203 591.081665,488.244446 590.915100,484.835144 
	C590.850891,483.521484 590.928406,482.156677 591.227112,480.882202 
	C591.514526,479.656097 592.504517,478.946045 593.835999,479.003326 
	C595.257935,479.064453 595.718201,480.061615 596.052124,481.285736 
	C598.201172,489.163422 595.726868,493.099548 587.743103,494.418732 
	C580.863770,495.555359 574.070129,492.371918 571.287720,486.707855 
	C568.443970,480.918915 569.853516,473.010040 574.497314,468.697906 
	C578.913086,464.597565 587.302856,463.700500 592.794434,466.745178 
	C594.618042,467.756287 596.543274,468.988464 595.364441,471.359589 
	C594.158447,473.785461 592.198242,472.338989 590.644897,471.532654 
	C585.898438,469.068970 581.655090,470.014191 577.416870,473.501831 
z"/>
<path fill="#000000" opacity="1.000000" stroke="none" 
	d="
M298.169556,465.319397 
	C301.233887,468.273285 299.641327,469.626251 296.771820,470.003906 
	C294.155243,470.348297 291.460449,470.278290 288.811432,470.152893 
	C285.173462,469.980621 284.742065,472.420258 284.741272,475.033783 
	C284.740295,478.228760 287.150116,477.485504 289.087433,477.403534 
	C291.240906,477.312469 293.395721,477.159302 295.548553,477.180359 
	C296.931061,477.193848 298.304962,477.598328 298.372375,479.329346 
	C298.446503,481.233398 297.127594,481.932434 295.483643,482.045380 
	C293.663422,482.170471 291.816132,482.328278 290.010895,482.155579 
	C286.416962,481.811737 284.847565,483.254150 284.780090,486.901306 
	C284.704773,490.970490 287.621460,489.730713 289.670135,489.873993 
	C292.316742,490.059052 294.985107,489.916199 297.636383,490.058167 
	C298.969330,490.129547 300.476746,490.487549 300.533600,492.175049 
	C300.593597,493.956421 299.084839,494.231018 297.727539,494.241913 
	C292.911438,494.280609 288.094666,494.243500 283.278198,494.220367 
	C280.802582,494.208496 279.726959,492.933044 279.730164,490.470703 
	C279.739685,483.162231 279.733734,475.852539 279.604431,468.545624 
	C279.549469,465.439880 281.510223,464.982452 283.830017,464.982666 
	C288.476379,464.983063 293.122742,465.098938 298.169556,465.319397 
z"/>
<path fill="#000000" opacity="1.000000" stroke="none" 
	d="
M516.602905,471.523987 
	C515.429016,476.335510 516.986084,478.177826 521.657593,477.280701 
	C523.421387,476.941956 525.305176,477.103058 527.123474,477.213837 
	C528.553406,477.300964 529.804993,478.025391 529.802795,479.619507 
	C529.800598,481.182129 528.640015,481.981812 527.161255,482.057373 
	C524.673157,482.184540 522.177246,482.251862 519.686707,482.213593 
	C517.128357,482.174316 516.171570,483.421387 516.101074,485.870819 
	C516.023926,488.551941 517.024536,489.928406 519.827515,489.904480 
	C522.983276,489.877533 526.142273,489.930603 529.295532,490.056732 
	C530.724976,490.113922 532.033203,490.721832 531.846008,492.433655 
	C531.694275,493.821136 530.446716,494.211609 529.223694,494.217560 
	C524.237854,494.241791 519.251587,494.222504 514.265625,494.196930 
	C512.029541,494.185455 511.655701,492.730743 511.555359,490.855560 
	C511.147766,483.240601 511.197327,475.631134 511.448883,468.012268 
	C511.521027,465.827148 512.497437,464.991943 514.459229,464.976349 
	C518.946716,464.940613 523.435181,464.912018 527.922180,464.964966 
	C529.621887,464.985016 531.452332,465.195465 531.465820,467.506439 
	C531.479004,469.766235 529.770081,469.944305 528.007080,470.157013 
	C524.275085,470.607330 520.372620,469.167480 516.602905,471.523987 
z"/>
<path fill="#000000" opacity="1.000000" stroke="none" 
	d="
M678.512146,492.542358 
	C677.214050,489.129242 675.417725,486.961090 671.751282,487.373016 
	C667.740601,487.823578 662.820251,485.533173 660.516052,491.171875 
	C659.712463,493.138489 658.272827,495.015808 656.001831,493.732239 
	C653.776367,492.474426 655.434937,490.472412 656.139709,488.917358 
	C659.154114,482.266357 662.251404,475.652893 665.319397,469.026184 
	C666.163147,467.203644 666.939392,465.119110 669.363647,465.182922 
	C671.524719,465.239807 672.218628,467.174011 672.984558,468.850067 
	C676.157715,475.793427 679.356689,482.725037 682.502075,489.680939 
	C683.090454,490.982056 684.270264,492.526215 682.689575,493.732910 
	C681.300964,494.792969 679.851868,494.062897 678.512146,492.542358 
M669.858765,474.528839 
	C665.959412,475.089020 665.338501,479.066772 665.991272,480.928619 
	C667.055786,483.965179 670.211853,482.506866 673.094116,481.427612 
	C672.064880,479.100220 671.154907,477.042358 669.858765,474.528839 
z"/>
<path fill="#000000" opacity="1.000000" stroke="none" 
	d="
M753.146667,465.218842 
	C755.252441,465.343475 756.052429,466.606720 756.703003,467.993347 
	C760.020691,475.064911 763.377014,482.119415 766.580688,489.242523 
	C767.249634,490.729889 768.794434,492.835815 766.252686,493.932465 
	C764.097900,494.862091 763.045959,492.926086 762.060486,491.334259 
	C758.401611,485.424561 748.167419,485.414398 744.504333,491.344513 
	C743.500549,492.969543 742.493530,494.855194 740.326050,493.696991 
	C738.225342,492.574524 739.642578,490.737213 740.274231,489.328613 
	C743.403015,482.350891 746.605835,475.406189 749.817261,468.465881 
	C750.447510,467.103882 751.197693,465.781769 753.146667,465.218842 
M750.613708,478.171112 
	C750.387878,479.533752 748.989502,480.798035 750.320374,482.411011 
	C752.503052,482.728729 754.736511,483.155670 757.088135,481.749725 
	C756.505249,478.833466 755.694153,476.128296 753.679260,473.922882 
	C751.848083,474.679504 751.571350,476.248871 750.613708,478.171112 
z"/>
<path fill="#000000" opacity="1.000000" stroke="none" 
	d="
M333.301453,471.715515 
	C337.038910,478.901947 340.761353,485.693756 342.709869,493.406464 
	C339.053986,494.881531 338.103333,492.464050 336.853058,490.608093 
	C333.522522,485.664062 323.168518,485.774933 319.857544,490.788544 
	C319.309174,491.618896 318.814117,492.504333 318.151367,493.234436 
	C317.259979,494.216339 316.084320,494.356201 314.992554,493.612854 
	C313.979980,492.923431 314.169952,491.877533 314.606506,490.922394 
	C318.206268,483.046906 321.654327,475.094910 325.522949,467.353333 
	C326.908600,464.580536 329.384888,464.172638 331.284912,467.289246 
	C332.059692,468.560059 332.554779,470.001404 333.301453,471.715515 
M332.065247,480.121674 
	C331.158264,477.901855 330.637604,475.446747 328.299988,473.669098 
	C326.318604,476.377289 324.711639,478.879272 324.818512,482.602386 
	C327.510315,481.983002 330.502045,484.687988 332.065247,480.121674 
z"/>
<path fill="#000000" opacity="1.000000" stroke="none" 
	d="
M254.247284,494.283417 
	C250.023361,494.458313 246.164734,494.679871 242.854095,492.202057 
	C241.777390,491.396240 240.637711,490.381287 241.493484,488.890686 
	C242.349060,487.400482 243.722351,487.860321 245.001801,488.433746 
	C247.573624,489.586334 250.094208,490.908142 253.096649,490.136047 
	C255.078995,489.626312 257.207886,489.177307 257.458771,486.745758 
	C257.699371,484.413818 255.614456,483.796173 253.947281,483.156311 
	C251.783386,482.325806 249.495667,481.817902 247.331711,480.987518 
	C243.612473,479.560364 240.914429,476.985321 241.342911,472.804413 
	C241.751160,468.820984 244.416580,466.364197 248.402023,465.375183 
	C252.126785,464.450806 255.651962,465.042542 259.102264,466.454742 
	C260.662170,467.093262 261.592743,468.248230 260.902893,469.985504 
	C260.277924,471.559265 258.834320,471.587097 257.523987,471.104736 
	C255.127274,470.222595 252.700577,469.887817 250.186279,470.244476 
	C248.414566,470.495850 246.927170,471.311768 246.611298,473.191010 
	C246.261932,475.269440 247.841843,476.129883 249.458969,476.686584 
	C251.339737,477.334015 253.270416,477.847961 255.199570,478.341095 
	C259.423004,479.420624 262.777161,481.599304 262.713043,486.341064 
	C262.645813,491.312653 259.235718,493.546112 254.247284,494.283417 
z"/>
<path fill="#000000" opacity="1.000000" stroke="none" 
	d="
M426.957031,490.694275 
	C428.501404,493.696899 426.726257,494.230865 424.692413,494.264069 
	C420.198822,494.337433 415.702667,494.272064 411.207794,494.235291 
	C408.988251,494.217102 407.816376,493.054169 407.800415,490.834198 
	C407.747742,483.508575 407.706512,476.182861 407.696320,468.857117 
	C407.693817,467.073914 408.137360,465.354614 410.298523,465.284668 
	C412.508850,465.213104 413.022919,467.020081 413.052917,468.729187 
	C413.146332,474.055359 413.241638,479.390503 413.030121,484.709991 
	C412.876862,488.564117 414.227936,490.202026 418.219299,489.919067 
	C421.002441,489.721741 423.878113,489.441040 426.957031,490.694275 
z"/>
<path fill="#000000" opacity="1.000000" stroke="none" 
	d="
M447.680420,466.950378 
	C447.949646,474.808319 448.054565,482.288269 448.083954,489.768524 
	C448.091217,491.617950 447.981140,493.823944 445.532104,493.902161 
	C443.013275,493.982605 442.903107,491.799713 442.895813,489.929077 
	C442.869232,483.105377 442.818542,476.280273 442.932709,469.458282 
	C442.982819,466.464600 443.584076,463.757202 447.680420,466.950378 
z"/>
</svg>